<svg version="1.0" xmlns="http://www.w3.org/2000/svg" width="450.000000pt" height="150.000000pt" viewBox="0 0 450.000000 150.000000" preserveAspectRatio="xMidYMid meet">
    <g transform="translate(0.000000,150.000000) scale(0.100000,-0.100000)" fill="#000000" stroke="none">
        <path d="M257 1223 c-4 -6 -4 -256 0 -557 l6 -546 456 2 456 3 3 92 3 93 -301 0 -300 0 0 60 0 60 235 0 235 0 0 75 0 75 -235 0 -235 0 0 60 0 60 275 0 274 0 3 88 3 87 64 3 63 3 -7 37 c-4 20 -16 47 -27 59 l-21 23 25 25 c32 31 40 69 25 115 -9 27 -23 40 -61 59 -44 22 -64 25 -227 29 l-179 5 0 -172 0 -171 -195 0 -195 0 0 45 0 45 93 0 c163 0 237 38 237 121 0 48 -37 94 -88 109 -50 15 -377 26 -385 13z m307 -96 c10 -7 17 -22 14 -33 -4 -21 -49 -32 -130 -33 l-48 -1 0 40 0 40 73 0 c45 0 80 -5 91 -13z m530 3 c28 -10 34 -31 12 -49 -7 -6 -47 -14 -90 -17 l-76 -7 0 42 0 41 64 0 c36 0 76 -4 90 -10z m-10 -172 c13 -13 27 -33 31 -45 6 -23 5 -23 -84 -23 l-91 0 0 45 0 45 59 0 c48 0 65 -4 85 -22z"/>
        <path d="M2130 1128 c0 -62 -5 -113 -13 -127 -29 -57 -117 -47 -137 15 l-12 34 -70 0 -71 0 6 -42 c7 -52 33 -88 83 -113 31 -16 59 -20 139 -20 114 0 152 15 192 75 21 30 23 45 23 156 l0 124 -70 0 -70 0 0 -102z"/>
        <path d="M2577 1198 c-44 -60 -47 -58 63 -58 l101 0 -3 43 -3 42 -67 3 c -65 3-67 2 -91 -30z"/>
        <path d="M2790 1185 l0 -45 70 0 71 0 -1 -127 c-1 -71 -1 -300 -1 -511 l1 -383 158 3 157 3 0 380 0 380 -87 3 -88 3 0 124 0 125 70 0 70 0 0 45 0 45 -210 0 -210 0 0 -45z"/>
        <path d="M1389 1200 c-98 -52 -113 -198 -29 -274 l39 -35 -47 -3 -47 -3 0 -380 0 -380 158 -3 157 -3 0 243 c0 150 4 238 9 232 5 -5 70 -112 144 -239 l135 -230 119 -3 120 -3 139 238 139 238 5 -235 5 -235 160 0 160 0 3 418 2 417 -140 0 -140 0 0 30 0 30 111 0 110 0 -3 33 -3 32 -91 3 c-76 2 -93 0 -106 -15 -8 -10 -116 -177 -239 -371 -123 -193 -227 -351 -231 -350 -4 2 -96 142 -204 313 -108 171 -198 312 -200 313 -1 2 -19 -1 -38 -8 -27 -9 -44 -9 -71 0 -72 24 -87 92 -31 145 l35 32 -25 37 c-28 41 -51 45 -105 16z"/>
        <path d="M3420 505 l0 -385 445 0 445 0 0 95 0 95 -285 0 -285 0 0 290 0 290 -160 0 -160 0 0 -385z"/>
    </g>
</svg>
