<svg xmlns="http://www.w3.org/2000/svg" xmlns:xlink="http://www.w3.org/1999/xlink" width="450" zoomAndPan="magnify" viewBox="0 0 337.5 112.499997" height="150" preserveAspectRatio="xMidYMid meet" version="1.0">
    <defs>
        <g/>
    </defs>
    <g fill="#000000" fill-opacity="1">
        <g transform="translate(2.534236, 40.526994)">
            <g>
                <path d="M 15.578125 0 L 3.265625 0 L 3.265625 -29.34375 L 23.28125 -29.34375 C 28.070312 -29.34375 31.9375 -28.984375 34.875 -28.265625 C 37.8125 -27.546875 39.953125 -26.421875 41.296875 -24.890625 C 42.648438 -23.359375 43.328125 -21.359375 43.328125 -18.890625 C 43.328125 -16.441406 42.648438 -14.445312 41.296875 -12.90625 C 39.953125 -11.375 37.8125 -10.25 34.875 -9.53125 C 31.9375 -8.820312 28.070312 -8.46875 23.28125 -8.46875 L 15.578125 -8.46875 Z M 15.578125 -15.703125 L 22.609375 -15.71875 C 24.578125 -15.71875 26.125 -15.796875 27.25 -15.953125 C 28.382812 -16.109375 29.21875 -16.328125 29.75 -16.609375 C 30.289062 -16.898438 30.632812 -17.238281 30.78125 -17.625 C 30.9375 -18.019531 31.015625 -18.441406 31.015625 -18.890625 C 31.015625 -19.359375 30.9375 -19.785156 30.78125 -20.171875 C 30.632812 -20.554688 30.289062 -20.890625 29.75 -21.171875 C 29.21875 -21.460938 28.382812 -21.6875 27.25 -21.84375 C 26.125 -22 24.578125 -22.078125 22.609375 -22.078125 L 15.578125 -22.078125 Z M 15.578125 -15.703125 "/>
            </g>
        </g>
    </g>
    <g fill="#000000" fill-opacity="1">
        <g transform="translate(47.502736, 40.526994)">
            <g>
                <path d="M 43.328125 0 L 31.6875 0 C 31.15625 -0.738281 30.78125 -1.679688 30.5625 -2.828125 C 30.375 -3.710938 30.085938 -4.578125 29.703125 -5.421875 C 29.328125 -6.273438 28.671875 -6.984375 27.734375 -7.546875 C 26.796875 -8.117188 25.410156 -8.425781 23.578125 -8.46875 L 15.578125 -8.46875 L 15.578125 0 L 3.265625 0 L 3.265625 -29.34375 L 23.28125 -29.34375 C 28.070312 -29.34375 31.9375 -28.984375 34.875 -28.265625 C 37.8125 -27.546875 39.953125 -26.421875 41.296875 -24.890625 C 42.648438 -23.359375 43.328125 -21.359375 43.328125 -18.890625 C 43.328125 -16.835938 42.859375 -15.109375 41.921875 -13.703125 C 40.992188 -12.296875 39.519531 -11.179688 37.5 -10.359375 C 39.445312 -9.554688 40.707031 -8.59375 41.28125 -7.46875 C 41.863281 -6.34375 42.222656 -5.109375 42.359375 -3.765625 C 42.492188 -2.566406 42.816406 -1.3125 43.328125 0 Z M 15.578125 -15.703125 L 22.609375 -15.71875 C 24.578125 -15.71875 26.125 -15.804688 27.25 -15.984375 C 28.382812 -16.160156 29.21875 -16.398438 29.75 -16.703125 C 30.289062 -17.015625 30.632812 -17.359375 30.78125 -17.734375 C 30.9375 -18.109375 31.015625 -18.492188 31.015625 -18.890625 C 31.015625 -19.285156 30.9375 -19.671875 30.78125 -20.046875 C 30.632812 -20.429688 30.289062 -20.773438 29.75 -21.078125 C 29.21875 -21.390625 28.382812 -21.632812 27.25 -21.8125 C 26.125 -21.988281 24.578125 -22.078125 22.609375 -22.078125 L 15.578125 -22.078125 Z M 15.578125 -15.703125 "/>
            </g>
        </g>
    </g>
    <g fill="#000000" fill-opacity="1"><g transform="translate(92.471237, 40.526994)">
        <g>
            <path d="M 22.1875 0.640625 C 14.9375 0.640625 9.597656 -0.851562 6.171875 -3.84375 C 3.148438 -6.488281 1.640625 -10.09375 1.640625 -14.65625 C 1.640625 -19.207031 3.148438 -22.804688 6.171875 -25.453125 C 9.597656 -28.441406 14.9375 -29.9375 22.1875 -29.9375 C 29.4375 -29.9375 34.769531 -28.441406 38.1875 -25.453125 C 41.21875 -22.804688 42.734375 -19.207031 42.734375 -14.65625 C 42.734375 -10.09375 41.21875 -6.488281 38.1875 -3.84375 C 34.769531 -0.851562 29.4375 0.640625 22.1875 0.640625 Z M 22.1875 -7.234375 C 25.15625 -7.234375 27.335938 -8.085938 28.734375 -9.796875 C 29.847656 -11.171875 30.40625 -12.789062 30.40625 -14.65625 C 30.40625 -16.53125 29.847656 -18.144531 28.734375 -19.5 C 27.335938 -21.21875 25.15625 -22.078125 22.1875 -22.078125 C 19.21875 -22.078125 17.03125 -21.21875 15.625 -19.5 C 14.5 -18.144531 13.9375 -16.53125 13.9375 -14.65625 C 13.9375 -12.789062 14.5 -11.171875 15.625 -9.796875 C 17.03125 -8.085938 19.21875 -7.234375 22.1875 -7.234375 Z M 22.1875 -7.234375 "/>
        </g>
    </g>
    </g>
    <g fill="#000000" fill-opacity="1">
        <g transform="translate(136.846695, 40.526994)">
            <g>
                <path d="M 20.015625 0.640625 C 12.859375 0.640625 7.820312 -0.847656 4.90625 -3.828125 C 2.457031 -6.316406 1.234375 -9.921875 1.234375 -14.640625 L 13.53125 -14.640625 C 13.53125 -12.597656 13.878906 -10.984375 14.578125 -9.796875 C 15.578125 -8.085938 17.390625 -7.234375 20.015625 -7.234375 C 22.671875 -7.234375 24.492188 -8.085938 25.484375 -9.796875 C 26.171875 -11.023438 26.515625 -12.640625 26.515625 -14.640625 L 26.515625 -29.328125 L 38.828125 -29.328125 L 38.828125 -14.46875 C 38.828125 -9.863281 37.609375 -6.316406 35.171875 -3.828125 C 32.234375 -0.847656 27.179688 0.640625 20.015625 0.640625 Z M 20.015625 0.640625 "/>
            </g>
        </g>
    </g>
    <g fill="#000000" fill-opacity="1">
        <g transform="translate(177.520796, 40.526994)">
            <g>
                <path d="M 38.609375 0 L 3.265625 0 L 3.265625 -29.34375 L 36.984375 -29.34375 L 36.984375 -22.078125 L 15.578125 -22.078125 L 15.578125 -17.484375 L 33.671875 -17.484375 L 33.671875 -11.84375 L 15.578125 -11.84375 L 15.578125 -7.265625 L 38.609375 -7.265625 Z M 38.609375 0 "/>
            </g>
        </g>
    </g>
    <g fill="#000000" fill-opacity="1">
        <g transform="translate(217.765452, 40.526994)">
            <g>
                <path d="M 25.03125 0 L 12.71875 0 L 12.71875 -22.078125 L 1.234375 -22.078125 L 1.234375 -29.34375 L 36.515625 -29.34375 L 36.515625 -22.078125 L 25.03125 -22.078125 Z M 25.03125 0 "/>
            </g>
        </g>
    </g>
    <g fill="#000000" fill-opacity="1">
        <g transform="translate(94.958468, 110.072856)">
            <g>
                <path d="M 31.171875 0 L 6.546875 0 L 6.546875 -58.6875 L 46.59375 -58.6875 C 56.15625 -58.6875 63.875 -57.972656 69.75 -56.546875 C 75.632812 -55.117188 79.925781 -52.867188 82.625 -49.796875 C 85.320312 -46.734375 86.671875 -42.734375 86.671875 -37.796875 C 86.671875 -32.890625 85.320312 -28.898438 82.625 -25.828125 C 79.925781 -22.765625 75.632812 -20.515625 69.75 -19.078125 C 63.875 -17.648438 56.15625 -16.9375 46.59375 -16.9375 L 31.171875 -16.9375 Z M 31.171875 -31.40625 L 45.234375 -31.453125 C 49.160156 -31.453125 52.253906 -31.609375 54.515625 -31.921875 C 56.785156 -32.234375 58.457031 -32.675781 59.53125 -33.25 C 60.601562 -33.820312 61.289062 -34.492188 61.59375 -35.265625 C 61.894531 -36.046875 62.046875 -36.890625 62.046875 -37.796875 C 62.046875 -38.722656 61.894531 -39.570312 61.59375 -40.34375 C 61.289062 -41.125 60.601562 -41.800781 59.53125 -42.375 C 58.457031 -42.945312 56.785156 -43.390625 54.515625 -43.703125 C 52.253906 -44.015625 49.160156 -44.171875 45.234375 -44.171875 L 31.171875 -44.171875 Z M 31.171875 -31.40625 "/>
            </g>
        </g>
    </g>
    <g fill="#000000" fill-opacity="1">
        <g transform="translate(184.895457, 110.072856)">
            <g>
                <path d="M 31.171875 0 L 6.546875 0 L 6.546875 -58.6875 L 31.171875 -58.6875 Z M 31.171875 0 "/>
            </g>
        </g>
    </g>
    <g fill="#000000" fill-opacity="1">
        <g transform="translate(222.604372, 110.072856)">
            <g>
                <path d="M 31.171875 0 L 6.546875 0 L 6.546875 -58.6875 L 31.171875 -58.6875 Z M 31.171875 0 "/>
            </g>
        </g>
    </g>
    <g fill="#000000" fill-opacity="1">
        <g transform="translate(260.313287, 110.072856)">
            <g>
                <path d="M 75.046875 0 L 6.546875 0 L 6.546875 -58.6875 L 31.171875 -58.6875 L 31.171875 -14.515625 L 75.046875 -14.515625 Z M 75.046875 0 "/>
            </g>
        </g>
    </g>
</svg>